<?xml version="1.0" encoding="utf-8"?>
<!-- Generator: Adobe Illustrator 22.0.1, SVG Export Plug-In . SVG Version: 6.00 Build 0)  -->
<svg version="1.1"
	 id="svg2" xmlns:cc="http://creativecommons.org/ns#" xmlns:dc="http://purl.org/dc/elements/1.1/" xmlns:rdf="http://www.w3.org/1999/02/22-rdf-syntax-ns#" xmlns:svg="http://www.w3.org/2000/svg"
	 xmlns="http://www.w3.org/2000/svg" xmlns:xlink="http://www.w3.org/1999/xlink" x="0px" y="0px" viewBox="0 0 130.2 162.2"
	 style="enable-background:new 0 0 130.2 162.2;" xml:space="preserve">
<g id="layer1" transform="translate(129.47008,-1148.7329)">
	<g id="Page_1" transform="matrix(0.17893165,0,0,0.17893165,-129.37356,1149.0013)">
		<g id="BackBone.JS">
			<path id="Path" style="fill:#002A41;stroke:#848484;" d="M2.3,3.3v485l361,205.8V554.2L121.8,416.5V200.3L363.3,338V209.1
				L2.3,3.3z"/>
			<path id="path2996" style="fill:#0071B5;stroke:#848484;" d="M724.3,3.3v485l-361,205.8V554.2l241.5-137.7V200.3L363.3,338V209.1
				L724.3,3.3z"/>
			<path id="path2998" style="fill:#0071B5;stroke:#848484;" d="M2.3,900.1v-485l361-205.8v139.9L121.8,486.9v205.2l241.5-137.7
				v139.9L2.3,900.1z"/>
			<path id="path3000" style="fill:#002A41;stroke:#848484;" d="M724.3,900.1v-485l-361-205.8v139.9l241.5,137.7v205.2L363.3,554.4
				v139.9L724.3,900.1z"/>
		</g>
	</g>
</g>
</svg>
