<?xml version="1.0" encoding="utf-8"?>
<!-- Generator: Adobe Illustrator 22.0.1, SVG Export Plug-In . SVG Version: 6.00 Build 0)  -->
<svg version="1.1" id="Layer_1" xmlns="http://www.w3.org/2000/svg" xmlns:xlink="http://www.w3.org/1999/xlink" x="0px" y="0px"
	 viewBox="0 0 137.7 149.3" style="enable-background:new 0 0 137.7 149.3;" xml:space="preserve">
<g transform="translate(-1.000000, -1.000000)">
	<g transform="translate(0.699997, 0.400002)">
		<path style="fill:#47848F;" d="M48.9,32.8C29.4,29.2,14,32.9,7.8,43.6C3.2,51.5,4.5,62.1,11,73.3c0.5,1,1.8,1.3,2.7,0.7
			c1-0.5,1.3-1.8,0.7-2.7c-5.8-10.1-6.9-19.2-3.1-25.7c5.1-8.8,18.9-12.2,36.9-8.9c1.1,0.2,2.1-0.5,2.3-1.6S50,33,48.9,32.8
			L48.9,32.8z M21.1,87c7.9,8.7,18.1,16.8,29.8,23.5c28.3,16.3,58.4,20.7,73.3,10.6c0.9-0.6,1.1-1.9,0.5-2.8s-1.9-1.1-2.8-0.5
			c-13.3,9.1-41.9,4.9-69-10.7C41.6,100.6,31.6,92.7,24,84.3c-0.7-0.8-2-0.9-2.8-0.1C20.4,84.9,20.4,86.2,21.1,87L21.1,87z"/>
		<path style="fill:#47848F;" d="M119.5,84.6c12.8-15.1,17.2-30.3,11.1-40.9c-4.5-7.8-14.1-11.9-26.7-12.1c-1.1,0-2,0.9-2,2
			c0,1.1,0.9,2,2,2c11.4,0.1,19.6,3.7,23.3,10.1c5.1,8.8,1.1,22.4-10.7,36.3c-0.7,0.8-0.6,2.1,0.2,2.8
			C117.5,85.5,118.8,85.4,119.5,84.6L119.5,84.6z M86.6,33.4C75.1,35.9,62.8,40.8,51,47.6C21.8,64.4,2.7,89.3,5.4,107.3
			c0.2,1.1,1.2,1.8,2.3,1.7c1.1-0.2,1.8-1.2,1.7-2.3C7,90.7,25.1,67.2,53,51c11.5-6.6,23.4-11.3,34.5-13.7c1.1-0.2,1.8-1.3,1.5-2.4
			C88.8,33.9,87.7,33.2,86.6,33.4L86.6,33.4z"/>
		<path style="fill:#47848F;" d="M39.3,119.8c6.7,18.6,17.6,30.1,29.9,30.1c9,0,17.2-6.1,23.7-16.9c0.6-0.9,0.3-2.2-0.7-2.7
			c-0.9-0.6-2.2-0.3-2.7,0.7c-5.8,9.7-12.9,14.9-20.3,14.9c-10.2,0-19.9-10.2-26.1-27.5c-0.4-1-1.5-1.6-2.6-1.2
			C39.5,117.6,39,118.8,39.3,119.8L39.3,119.8z M100.3,116.2c3.5-11,5.3-23.8,5.3-37.1c0-33.1-11.6-61.7-28.1-69c-1-0.4-2.2,0-2.6,1
			s0,2.2,1,2.6c14.7,6.5,25.7,33.6,25.7,65.4c0,12.9-1.8,25.2-5.1,35.9c-0.3,1.1,0.3,2.2,1.3,2.5C98.9,117.8,100,117.2,100.3,116.2
			L100.3,116.2z"/>
		<path style="fill:#47848F;" d="M138,114.2c0-5.3-4.3-9.6-9.6-9.6s-9.6,4.3-9.6,9.6s4.3,9.6,9.6,9.6
			C133.7,123.8,138,119.5,138,114.2L138,114.2z M134,114.2c0,3.1-2.5,5.6-5.6,5.6c-3.1,0-5.6-2.5-5.6-5.6s2.5-5.6,5.6-5.6
			C131.5,108.6,134,111.1,134,114.2L134,114.2z"/>
		<path style="fill:#47848F;" d="M9.9,123.8c5.3,0,9.6-4.3,9.6-9.6s-4.3-9.6-9.6-9.6s-9.6,4.3-9.6,9.6S4.6,123.8,9.9,123.8
			L9.9,123.8z M9.9,119.8c-3.1,0-5.6-2.5-5.6-5.6s2.5-5.6,5.6-5.6s5.6,2.5,5.6,5.6S12.9,119.8,9.9,119.8L9.9,119.8z"/>
		<path style="fill:#47848F;" d="M69.2,19.8c5.3,0,9.6-4.3,9.6-9.6s-4.3-9.6-9.6-9.6s-9.6,4.3-9.6,9.6S63.9,19.8,69.2,19.8
			L69.2,19.8z M69.2,15.8c-3.1,0-5.6-2.5-5.6-5.6s2.5-5.6,5.6-5.6s5.6,2.5,5.6,5.6S72.3,15.8,69.2,15.8L69.2,15.8z"/>
		<path style="fill:#47848F;" d="M70.7,85.9c-3.7,0.8-7.4-1.6-8.2-5.3c-0.8-3.7,1.6-7.4,5.3-8.2c3.7-0.8,7.4,1.6,8.2,5.3
			C76.8,81.4,74.4,85.1,70.7,85.9z"/>
	</g>
</g>
</svg>
