<?xml version="1.0" encoding="utf-8"?>
<!-- Generator: Adobe Illustrator 22.0.1, SVG Export Plug-In . SVG Version: 6.00 Build 0)  -->
<svg version="1.1" id="Layer_1" xmlns="http://www.w3.org/2000/svg" xmlns:xlink="http://www.w3.org/1999/xlink" x="0px" y="0px"
	 viewBox="0 0 114 114.1" style="enable-background:new 0 0 114 114.1;" xml:space="preserve">
<path style="fill:#F05133;" d="M111.9,52L62.1,2.2c-2.9-2.9-7.5-2.9-10.4,0L41.4,12.6l13.1,13.1c3-1,6.5-0.3,9,2.1
	c2.4,2.4,3.1,6,2.1,9l12.6,12.6c3.1-1.1,6.6-0.4,9,2.1c3.4,3.4,3.4,8.9,0,12.3s-8.9,3.4-12.3,0c-2.6-2.6-3.2-6.3-1.9-9.5L61.2,42.6
	v31c0.8,0.4,1.6,1,2.3,1.7c3.4,3.4,3.4,8.9,0,12.3s-8.9,3.4-12.3,0s-3.4-8.9,0-12.3c0.8-0.8,1.8-1.5,2.9-1.9V42
	c-1-0.4-2-1.1-2.9-1.9c-2.6-2.6-3.2-6.4-1.9-9.5L36.4,17.7L2.2,51.8c-2.9,2.9-2.9,7.5,0,10.4l49.7,49.7c2.9,2.9,7.5,2.9,10.4,0
	l49.5-49.5C114.7,59.5,114.7,54.9,111.9,52"/>
</svg>
