<?xml version="1.0" encoding="utf-8"?>
<!-- Generator: Adobe Illustrator 22.0.1, SVG Export Plug-In . SVG Version: 6.00 Build 0)  -->
<svg version="1.1" id="Layer_1" xmlns:sketch="http://www.bohemiancoding.com/sketch/ns"
	 xmlns="http://www.w3.org/2000/svg" xmlns:xlink="http://www.w3.org/1999/xlink" x="0px" y="0px" viewBox="0 0 174 385"
	 style="enable-background:new 0 0 174 385;" xml:space="preserve">
<title>gulp</title>
<desc>Created with Sketch.</desc>
<g id="Page-1" sketch:type="MSPage">
	<g id="gulp" sketch:type="MSArtboardGroup">
		<g id="Gulp-Logo" transform="translate(0.000000, 1.000000)" sketch:type="MSLayerGroup">
			<path id="Cup" sketch:type="MSShapeGroup" style="fill:#DA4648;" d="M86.2,302.8c-22.6,0-40-3.4-48.4-5.4
				c-5.7-1.4-10.3-2.8-13.8-4.3l11.2,19.1l4.4,59.7c0,6.7,21.3,12.1,47.5,12.1s47.5-5.4,47.5-12.1l3.5-60.4l10.6-18.5
				c-3.5,1.5-8.2,2.9-14,4.3C126.3,299.4,108.8,302.8,86.2,302.8z M149,108.5c-16.6,2.3-38.6,3.6-61.9,3.6s-45.3-1.3-61.9-3.6
				c-8.2-1.1-14.7-2.5-19.3-4c-1.1-0.4-3-1-4.7-2L11.5,197c0.5-1.6,1-3.3,1.6-4.9c1.2-3.3,2.6-6.6,4.2-9.7c1.6-3.2,3.3-6.2,5.2-9
				c1.9-2.8,3.8-5.4,5.9-7.8c2.1-2.4,4.3-4.4,6.5-6.1c2.2-1.7,4.4-3,6.7-4s4.5-1.4,6.7-1.4c2.5,0,5,0.7,7.4,2.1
				c2.4,1.4,4.6,3.6,6.7,6.8c0.5,0.7,0.8,1.4,0.9,2.1c0.1,0.7,0.2,1.4,0.2,2c0,1.5-0.4,2.7-1.1,3.5c-0.7,0.9-1.6,1.3-2.5,1.3
				s-1.7-0.5-2.5-1.4s-1.6-2.3-2.6-4.1c-0.9-1.6-1.9-2.7-3-3.5c-1.1-0.7-2.2-1.1-3.5-1.1c-2,0-4.1,0.8-6.3,2.4
				c-2.2,1.6-4.4,3.8-6.6,6.4c-2.2,2.7-4.3,5.7-6.3,9.2c-2,3.4-3.8,7-5.3,10.6s-2.8,7.2-3.7,10.7c-0.9,3.5-1.4,6.6-1.4,9.4
				c0,0.9,0.1,1.9,0.2,2.9s0.4,1.9,0.7,2.7c0.3,0.8,0.8,1.5,1.4,2s1.4,0.8,2.3,0.8c1,0,2.2-0.3,3.5-1s2.7-1.6,4.1-2.7
				c1.4-1.1,2.8-2.4,4.3-3.8c1.4-1.4,2.8-2.9,4-4.3c1.2-1.5,2.3-2.9,3.3-4.2s1.7-2.5,2.1-3.5l3.9-11.7c0.5-1.3,1.1-2.2,1.9-2.7
				c0.8-0.5,1.6-0.8,2.4-0.8c0.4,0,0.8,0.1,1.2,0.2c0.4,0.1,0.7,0.3,1.1,0.6c0.3,0.3,0.6,0.6,0.7,1.1c0.2,0.4,0.3,1,0.3,1.6
				c0,1.6-0.1,3.1-0.4,4.5c-0.3,1.4-0.6,2.8-1.1,4.1c-0.4,1.3-0.9,2.7-1.5,4c-0.5,1.3-1.1,2.7-1.6,4.2c-0.1,0.2-0.3,0.7-0.6,1.6
				c-0.3,0.9-0.7,2-1.1,3.3c-0.4,1.3-0.9,2.8-1.4,4.5c-0.5,1.6-1,3.3-1.5,5s-1,3.4-1.5,5s-0.9,3.1-1.3,4.5c-0.4,1.3-0.7,2.4-0.9,3.3
				c-0.3,0.9-0.4,1.4-0.5,1.6c-0.1,0.5-0.4,1.1-0.7,1.8c-0.3,0.6-0.7,1.3-1.1,1.8c-0.4,0.6-0.9,1.1-1.4,1.4c-0.5,0.4-1,0.6-1.6,0.6
				c-0.9,0-1.5-0.3-2-0.9c-0.4-0.6-0.6-1.7-0.6-3.3V234c0-0.2,0-0.5,0-0.7c0-0.5,0.2-1.5,0.6-3c0.4-1.5,0.9-3.1,1.4-5
				c0.5-1.8,1.1-3.8,1.8-5.7c0.6-2,1.2-3.7,1.7-5.3c-1.5,1.7-3.1,3.3-4.8,5c-1.7,1.6-3.5,3.1-5.3,4.4c-1.8,1.3-3.7,2.4-5.5,3.2
				s-3.6,1.2-5.3,1.2c-2,0-3.6-0.4-5.1-1.3c-0.3-0.2-0.5-0.3-0.7-0.5l5.7,59.9c1.5,3.7,29.5,12.9,66.4,12.9s64.9-9.2,66.4-12.9
				l8.2-71.2c-0.7,0.6-1.3,1.2-2,1.8c-2.4,2.2-4.6,4.1-6.7,5.6c-2.1,1.6-4.1,2.8-6.1,3.7s-4.1,1.3-6.4,1.3c-2.1,0-3.8-0.5-4.9-1.4
				c-1.2-0.9-1.7-2.2-1.7-3.8v-0.4c0-0.1,0-0.3,0-0.4c0.1-1,0.5-2.1,1.3-3.4c0.8-1.3,1.7-2.6,2.7-4c1.1-1.4,2.2-2.8,3.4-4.2
				s2.3-2.8,3.3-4.1s1.9-2.4,2.5-3.5c0.7-1.1,1-1.9,1-2.6c0-0.4-0.1-0.7-0.4-0.9c-0.3-0.2-0.7-0.3-1.4-0.3c-1.1,0-2.3,0.3-3.5,0.9
				c-1.2,0.6-2.4,1.4-3.5,2.3c-1.2,1-2.3,2.1-3.4,3.4c-1.1,1.3-2.1,2.6-3.1,3.9c-1,1.4-1.8,2.7-2.6,4.1c-0.8,1.4-1.5,2.6-2,3.8
				c-0.2,0.4-0.4,0.9-0.7,1.5c-0.3,0.7-0.6,1.4-1,2.2s-0.8,1.7-1.2,2.6c-0.4,0.9-0.8,1.7-1.1,2.5c-0.3,0.8-0.6,1.5-0.9,2.1
				s-0.5,1-0.6,1.3s-0.4,0.9-0.7,1.7c-0.3,0.8-0.7,1.8-1.1,2.9c-0.4,1.1-0.9,2.3-1.3,3.5c-0.5,1.2-0.9,2.4-1.3,3.5s-0.8,2.1-1.1,2.9
				c-0.3,0.8-0.5,1.4-0.6,1.7c-0.3,0.9-0.6,1.7-1,2.4c-0.4,0.8-0.8,1.4-1.3,2s-1.1,1-1.7,1.4s-1.3,0.5-2.1,0.5c-1,0-1.8-0.2-2.5-0.7
				s-1-1.4-1-2.8c0-0.7,0.1-1.3,0.3-2c0.2-0.7,0.4-1.4,0.6-2.1c0.3-0.7,0.5-1.3,0.8-2c0.3-0.6,0.5-1.3,0.7-1.9
				c1.5-3.3,3.1-6.6,4.6-10c1.6-3.3,3.1-6.6,4.5-9.9c0.3-0.7,0.6-1.4,0.9-2c-0.1,0.1-0.2,0.2-0.3,0.3c-1.8,1.8-3.6,3.3-5.4,4.7
				c-1.8,1.3-3.6,2.4-5.4,3.2s-3.5,1.2-5.2,1.2c-1.1,0-2.1-0.2-2.9-0.5c-0.8-0.4-1.4-0.9-1.8-1.5c-0.5-0.6-0.8-1.4-1-2.2
				c-0.1-0.3-0.1-0.6-0.2-0.9c-0.5,0.4-1,0.8-1.5,1.1c-1.7,1.2-3.4,2.2-5.1,3c-1.7,0.7-3.2,1.1-4.5,1.1s-2.4-0.4-3.3-1.3
				c-0.8-0.9-1.3-2.4-1.3-4.6c0-1.5,0.2-3.3,0.7-5.3c-0.7,1.3-1.6,2.6-2.7,3.9c-1.1,1.3-2.3,2.5-3.7,3.6c-1.4,1.1-3,2-4.7,2.7
				s-3.6,1-5.7,1c-0.9,0-1.8-0.1-2.7-0.3s-1.6-0.6-2.2-1.2c-0.6-0.6-1.2-1.3-1.6-2.3c-0.4-0.9-0.6-2.1-0.6-3.6c0,0,0.1-0.5,0.2-1.5
				c0.1-1,0.5-2.5,1.1-4.6s1.5-4.8,2.8-8.2s3-7.4,5.3-12.2c0.6-1.3,1.3-2.2,2-2.7c0.8-0.5,1.6-0.8,2.5-0.8c0.4,0,0.8,0.1,1.2,0.2
				c0.4,0.1,0.8,0.3,1.2,0.5c0.4,0.2,0.7,0.6,0.9,0.9c0.2,0.4,0.3,0.8,0.3,1.3c0,0.3,0,0.6-0.1,0.9c-0.1,0.6-0.4,1.3-0.9,2.2
				s-1,2-1.6,3.1c-0.6,1.2-1.3,2.4-2,3.8c-0.7,1.4-1.3,2.8-1.9,4.2c-0.6,1.5-1.1,2.9-1.5,4.5c-0.4,1.5-0.7,3-0.7,4.4
				c0,0.6,0.1,1.1,0.4,1.6s0.7,0.7,1.4,0.7c1.8,0,3.6-0.6,5.2-1.8c1.7-1.2,3.2-2.7,4.6-4.5s2.7-3.7,3.8-5.7c1.1-2,2.1-3.9,2.8-5.6
				c0.5-1.1,1-2.3,1.4-3.6s0.8-2.5,1.3-3.6s1-2,1.6-2.7s1.4-1.1,2.3-1.1c1,0,1.8,0.4,2.4,1.1c0.6,0.8,0.9,1.7,0.9,2.7
				c0,0.6-0.2,1.4-0.6,2.5c-0.4,1-0.9,2.2-1.4,3.6c-0.6,1.3-1.2,2.8-1.9,4.3c-0.7,1.5-1.3,3.1-1.9,4.7c-0.6,1.6-1.1,3.1-1.4,4.6
				c-0.4,1.5-0.6,2.9-0.6,4.2c0,1.2,0.6,1.8,1.8,1.8c0.9,0,1.9-0.3,3.2-0.9c1.3-0.6,2.6-1.4,4.1-2.5c0.4-0.3,0.7-0.6,1.1-0.8
				c0.4-1.6,0.9-3.1,1.4-4.5c1-2.6,2-5.2,3-7.7c1-2.6,1.9-4.9,2.8-7l12.7-32.1c0.5-1.3,1.2-2.2,2-2.7c0.9-0.5,1.7-0.8,2.6-0.8
				s1.7,0.3,2.4,0.8c0.7,0.6,1.1,1.5,1.1,2.7c0,0.6-0.1,1.2-0.4,1.9c-0.2,0.7-0.5,1.4-0.9,2.1c-0.7,1.6-1.5,3.5-2.5,5.7
				c-1,2.3-2,4.7-3.1,7.4s-2.2,5.4-3.4,8.3c-1.2,2.9-2.3,5.7-3.4,8.4s-2.1,5.3-3.1,7.7s-1.8,4.6-2.5,6.3c-0.3,0.8-0.6,1.7-0.9,2.7
				s-0.4,1.9-0.4,2.7c0,0.5,0.1,0.9,0.3,1.2s0.5,0.4,1,0.4c0.6,0,1.3-0.2,2.2-0.6c0.9-0.4,1.8-1,2.9-1.6c1-0.7,2.1-1.5,3.2-2.3
				c1.1-0.9,2.2-1.8,3.3-2.7c1.1-0.9,2.1-1.9,3.1-2.8c1-0.9,1.9-1.8,2.7-2.6c0.2-0.2,0.4-0.3,0.6-0.4c0.5-1.4,0.9-2.8,1.3-4.2
				c0.2-0.6,0.5-1.4,0.9-2.5s0.8-2.2,1.3-3.2c0.5-1.1,1.1-2,1.7-2.8c0.6-0.8,1.3-1.2,2-1.2c1.1,0,1.9,0.3,2.4,0.8s0.8,1.3,0.8,2.3
				c0,0.2,0,0.5-0.1,0.9s-0.1,0.9-0.2,1.4c-0.1,0.5-0.2,0.9-0.3,1.4c-0.1,0.4-0.2,0.7-0.3,0.9c1-1.1,2.2-2.2,3.4-3.4
				c1.2-1.1,2.5-2.1,3.7-3c1.3-0.9,2.6-1.6,4-2.2c1.3-0.6,2.7-0.8,4-0.8c0.9,0,1.8,0.1,2.8,0.4c0.9,0.3,1.7,0.7,2.4,1.2
				s1.3,1.2,1.7,1.9c0.4,0.8,0.7,1.7,0.7,2.7c0,1.4-0.3,2.8-1,4.4c-0.7,1.5-1.5,3.1-2.6,4.7c-1,1.6-2.2,3.1-3.4,4.6s-2.3,2.8-3.4,4
				c-1.1,1.2-1.9,2.2-2.6,3.1c-0.7,0.8-1.1,1.4-1.1,1.7c0,0.4,0.1,0.7,0.4,1c0.3,0.2,0.7,0.4,1.3,0.4c0.5,0,1.2-0.3,2.1-0.8
				c0.9-0.5,2.2-1.5,3.9-2.8s3.8-3.1,6.3-5.3c1.8-1.5,3.8-3.3,6.1-5.4L173,102.5c-1.8,1-3.7,1.6-4.8,2
				C163.7,106,157.2,107.4,149,108.5z M87,84.1c-48,0-87,5.4-87,12s39,12,87,12s87-5.4,87-12S135,84.1,87,84.1z M121.7,99.6
				c0,1.6-4.6,2.8-10.3,2.8c-5.7,0-10.3-1.3-10.3-2.8c0-1.6,4.6-2.8,10.3-2.8S121.7,98,121.7,99.6z"/>
			<path id="Straw" sketch:type="MSShapeGroup" style="fill:#DA4648;" d="M103.2,98.4c-0.1,0.1-0.1,0.2-0.1,0.3c0,1,3.7,1.8,8.3,1.8
				c4.6,0,8.3-0.8,8.3-1.8l10.9-44.1L173.8,9l0,0c0.9-1-0.9-4.2-4-7c-3.1-2.7-6.4-3.7-7.4-2.6l0,0l-46.1,48.4L103.2,98.4z"/>
		</g>
	</g>
</g>
</svg>
