<?xml version="1.0" encoding="utf-8"?>
<!-- Generator: Adobe Illustrator 22.0.1, SVG Export Plug-In . SVG Version: 6.00 Build 0)  -->
<svg version="1.1" id="Layer_1" xmlns="http://www.w3.org/2000/svg" xmlns:xlink="http://www.w3.org/1999/xlink" x="0px" y="0px"
	 viewBox="0 0 451 512" style="enable-background:new 0 0 451 512;" xml:space="preserve">
<title>HTML5 Logo Badge</title>
<path style="fill:#E34F26;" d="M41,460L0,0h451l-41,460l-185,52"/>
<path style="fill:#EF652A;" d="M226,472l149-41l35-394H226"/>
<path style="fill:#EBEBEB;" d="M226,208h-75l-5-58h80V94h-1H84l1,15l14,156h127V208z M226,355h-1l-63-17l-4-45h-30h-26l7,89l116,32
	h1V355z"/>
<path style="fill:#FFFFFF;" d="M225,208v57h70l-7,73l-63,17v59l116-32l1-10l13-149l2-15h-16H225z M225,94v35v21l0,0h137l0,0l0,0
	l1-12l3-29l1-15H225z"/>
</svg>
