<?xml version="1.0" encoding="utf-8"?>
<!-- Generator: Adobe Illustrator 22.0.1, SVG Export Plug-In . SVG Version: 6.00 Build 0)  -->
<svg version="1.1" id="Layer_1" xmlns="http://www.w3.org/2000/svg" xmlns:xlink="http://www.w3.org/1999/xlink" x="0px" y="0px"
	 viewBox="0 0 255.6 254.1" style="enable-background:new 0 0 255.6 254.1;" xml:space="preserve">
<g transform="translate(128.000000, 127.000000) scale(1, -1) translate(-128.000000, -127.000000) translate(0.000000, -1.000000)">
	<path style="fill:#8A4182;" d="M117.9,149.8h19.8l4.9,6.7v52.7H113v-52.7L117.9,149.8"/>
	<path style="fill:#8A4182;" d="M105.1,126.3l6.1,18.7l-4.9,6.7L55.9,168l-9.2-28l50.4-16.3L105.1,126.3"/>
	<path style="fill:#8A4182;" d="M123.7,106.9l-16,11.6l-8-2.6L68.5,73.3l24-17.3l31.2,42.7V106.9"/>
	<path style="fill:#8A4182;" d="M147.9,118.5l-16-11.6v-8.3l31.2-42.7l24,17.3l-31.2,42.7L147.9,118.5"/>
	<path style="fill:#8A4182;" d="M144.3,145l6.1-18.7l8-2.6l50.4,16.3l-9.2,28l-50.4-16.3L144.3,145"/>
	<path style="fill:#8A4182;" d="M127.8,255C57.3,255,0,198,0,128C0,57.9,57.3,0.9,127.8,0.9s127.8,57,127.8,127.1
		C255.6,198,198.2,255,127.8,255L127.8,255L127.8,255z M127.8,229.3c56.3,0,101.9-45.4,101.9-101.3c0-56-45.6-101.4-101.9-101.4
		C71.5,26.6,25.9,72,25.9,128C25.9,183.9,71.5,229.3,127.8,229.3L127.8,229.3z"/>
	<path style="fill:#8A4182;" d="M205.2,99.7l-38.3,12.4l2.5,7.8l38.3-12.4L205.2,99.7"/>
	<path style="fill:#8A4182;" d="M156.3,160.9l-6.6,4.8l23.7,32.4l6.6-4.8L156.3,160.9"/>
	<path style="fill:#8A4182;" d="M99.7,161.2L76,193.6l6.6,4.8l23.7-32.4L99.7,161.2"/>
	<path style="fill:#8A4182;" d="M50.2,100.2l-2.5,7.8L86,120.3l2.5-7.8L50.2,100.2"/>
	<path style="fill:#8A4182;" d="M123.4,46.9h8.2V87h-8.2L123.4,46.9L123.4,46.9z"/>
</g>
</svg>
