<?xml version="1.0" encoding="utf-8"?>
<!-- Generator: Adobe Illustrator 22.0.1, SVG Export Plug-In . SVG Version: 6.00 Build 0)  -->
<svg version="1.1" id="Layer_1" xmlns="http://www.w3.org/2000/svg" xmlns:xlink="http://www.w3.org/1999/xlink" x="0px" y="0px"
	 viewBox="0 0 398.3 439.9" style="enable-background:new 0 0 398.3 439.9;" xml:space="preserve">
<path style="fill:#99425B;stroke:#FFFFFF;stroke-width:20;" d="M334.9,218.1c-0.5,0.3-18.3-2.7-40.7-4.2c-18.2-1.2-39.5-1.2-56.7,0
	c-14,0.9-32.4-6.1-34.6,2.3c-8.2,31.4-26,58.7-48.5,79.9c-17,16-36.4,28.1-57.4,35.6c-25-12.8-36.8-41.4-26.2-66.4
	c8.4-19.9,18.3-41.7,0.1-46.7c-13.2-3.6-20.5,9-25.5,22.5c-9.7,25.9-28.2,52.7-33.5,84.5c-5.6,33.5,0,69.1,29,89.3
	c67.6,46.8,140.9-29,218.2-48.1c28-6.9,58.8-5.8,83.5-20.1c18.5-10.7,30.8-28.5,34.2-48.5C382.4,266,365.7,234.1,334.9,218.1z"/>
<path style="fill:none;stroke:#FFFFFF;stroke-width:20;" d="M202.9,216.2c-8.2,31.4-26,58.7-48.5,79.9c-17,16-36.4,28.1-57.4,35.6
	c-25-12.8-36.8-41.4-26.2-66.4c8.4-19.9,18.3-41.7,0.1-46.7c-13.2-3.6-20.5,9-25.5,22.5c-9.7,25.9-28.2,52.7-33.5,84.5
	c-5.6,33.5,0,69.1,29,89.3c67.6,46.8,140.9-29,218.2-48.1c28-6.9,58.8-5.8,83.5-20.1c18.5-10.7,30.8-28.5,34.2-48.5
	c5.6-32.1-11.1-64.1-41.9-80"/>
<polygon style="fill:#99425B;" points="264.9,91.2 319.2,202 384.3,10 145.3,10 210.3,201.6 "/>
<polygon style="fill:none;stroke:#FFFFFF;stroke-width:20;" points="264.9,91.2 319.2,202 384.3,10 145.3,10 210.3,201.6 "/>
<circle style="fill:#99425B;" cx="199" cy="216.6" r="40.9"/>
<circle style="fill:none;stroke:#FFFFFF;stroke-width:20;" cx="199" cy="216.6" r="40.9"/>
<circle style="fill:#99425B;stroke:#FFFFFF;stroke-width:20;" cx="332.4" cy="216.6" r="40.9"/>
<circle style="fill:none;stroke:#FFFFFF;stroke-width:20;" cx="332.4" cy="216.6" r="40.9"/>
<circle style="fill:#99425B;" cx="65.1" cy="216.9" r="40.9"/>
<circle style="fill:none;stroke:#FFFFFF;stroke-width:20;" cx="65.1" cy="216.9" r="40.9"/>
</svg>
