<?xml version="1.0" encoding="utf-8"?>
<!-- Generator: Adobe Illustrator 22.0.1, SVG Export Plug-In . SVG Version: 6.00 Build 0)  -->
<svg version="1.1" id="Layer_1" xmlns="http://www.w3.org/2000/svg" xmlns:xlink="http://www.w3.org/1999/xlink" x="0px" y="0px"
	 viewBox="0 0 372.4 400" style="enable-background:new 0 0 372.4 400;" xml:space="preserve">
<title>ngrx</title>
<desc>Created with Sketch.</desc>
<g id="Page-1">
	<g id="ngrx">
		<polyline id="Shape" style="fill:#4A4A4A;" points="186.2,0 0,66.4 28.4,312.6 186.2,400 344,312.6 372.4,66.4 		"/>
		<polyline id="Shape_1_" style="fill:#545454;" points="186,0 186,44.4 186,44.2 186,400 343.8,312.6 372.2,66.4 		"/>
		<path id="path4" style="fill:#BA2BD2;" d="M149.1,84.1c-0.4,0.1-1.1,0.3-1.5,0.5s-1.1,0.4-1.6,0.5s-1.1,0.3-1.4,0.5
			s-0.7,0.4-1,0.4s-0.8,0.2-1.1,0.5s-0.7,0.5-0.9,0.6s-0.6,0.3-0.9,0.6c-0.3,0.3-0.6,0.5-0.7,0.5s-0.2,0.1-0.2,0.3s-0.2,0.4-0.5,0.5
			s-0.5,0.4-0.6,0.6s-0.3,0.4-0.4,0.4c-0.2,0-0.3,0.1-0.3,0.2s-0.3,0.5-0.6,0.8s-0.6,0.7-0.6,0.8s-0.2,0.2-0.4,0.3
			c-0.2,0.1-0.4,0.2-0.4,0.3c0,0.2-1.3,1.7-3.7,4c-1,1-2,2-2.3,2.3s-0.6,0.5-0.7,0.5s-0.5,0.4-1,0.9s-1,0.9-1.1,0.9
			s-0.3,0.2-0.5,0.4s-0.6,0.5-1,0.6c-0.3,0.1-0.8,0.4-1.1,0.7c-0.9,0.8-1.6,1.3-2.2,1.4c-0.3,0.1-0.7,0.3-0.8,0.5
			c-0.1,0.2-0.6,0.4-0.9,0.5c-0.4,0.1-0.7,0.3-0.9,0.4c-0.1,0.2-0.6,0.4-1.2,0.5c-0.5,0.1-1.2,0.4-1.5,0.6s-0.9,0.5-1.4,0.5
			c-0.5,0.1-1.1,0.3-1.3,0.4c-0.2,0.2-1.1,0.4-2.6,0.5c-1.2,0.1-2.6,0.3-2.9,0.5c-0.4,0.2-1.7,0.4-3.1,0.5c-1.5,0.1-2.6,0.3-2.9,0.5
			c-0.2,0.2-1,0.4-1.7,0.5c-0.8,0.1-1.3,0.3-1.5,0.6c-0.1,0.2-0.5,0.4-0.8,0.5s-0.7,0.3-0.9,0.5c-0.2,0.2-0.5,0.4-0.6,0.4
			c-0.3,0-2.7,2.3-2.7,2.6c0,0.1-0.2,0.4-0.4,0.5c-0.2,0.2-0.5,0.7-0.6,1.1s-0.4,0.8-0.5,0.9c-0.2,0.1-0.4,0.8-0.5,1.9
			c-0.1,0.9-0.3,2.2-0.5,2.7c-0.2,0.8-0.3,2.9-0.3,9.3c-0.1,8-0.1,8.3-0.5,9c-0.2,0.4-0.5,1-0.7,1.4c-0.1,0.4-0.3,0.7-0.4,0.7
			s-0.3,0.2-0.4,0.5c-0.3,0.8-4.7,5.4-6.5,6.8c-0.4,0.3-1,0.8-1.4,1.1c-0.3,0.3-0.9,0.7-1.2,1c-0.5,0.4-3.1,3-4.5,4.5
			c-0.2,0.2-0.4,0.5-0.4,0.6s-0.3,0.5-0.6,0.9c-0.3,0.4-0.6,0.8-0.6,1s-0.2,0.5-0.4,0.7c-0.2,0.2-0.5,0.8-0.6,1.4
			c-0.1,0.6-0.4,1.2-0.5,1.3c-0.4,0.3-0.4,4.3,0,5.3c0.2,0.4,0.4,1.8,0.5,3.1s0.3,2.5,0.5,2.8c0.2,0.2,0.4,1.2,0.5,2.1
			c0.1,1.1,0.3,1.7,0.6,2c0.2,0.2,0.5,0.7,0.5,1.2c0.1,0.4,0.3,0.9,0.5,1.1c0.2,0.2,0.4,0.7,0.5,1.1c0.1,0.4,0.3,0.7,0.5,0.9
			c0.2,0.1,0.4,0.5,0.5,0.9s0.3,1.2,0.4,1.7c0.5,1.4,0.5,6.3,0,7.3c-0.2,0.4-0.4,1.1-0.5,1.6s-0.3,1.2-0.6,1.6
			c-0.3,0.4-0.5,0.8-0.5,0.9c0,0.4-1.3,2.4-1.7,2.5c-0.2,0.1-0.3,0.3-0.3,0.5s-0.2,0.5-0.4,0.6s-0.4,0.3-0.4,0.5s-0.3,0.6-0.6,0.9
			c-0.3,0.4-0.6,1-0.7,1.4s-0.3,0.8-0.4,1c-0.4,0.3-0.4,3.2,0,4c0.2,0.3,0.4,1.3,0.5,2.1c0.1,1,0.3,1.6,0.6,1.9
			c0.2,0.2,0.5,0.7,0.5,1c0.1,0.3,0.3,0.7,0.5,0.9s0.4,0.6,0.4,0.8s0.4,0.8,0.9,1.3s1,1.3,1.2,1.6s0.5,0.7,0.7,0.9
			c0.2,0.1,0.4,0.4,0.4,0.5c0,0.2,0.1,0.3,0.3,0.4s0.4,0.3,0.5,0.6s0.4,0.5,0.5,0.5c0.2,0,0.3,0.2,0.4,0.4s0.3,0.5,0.5,0.8
			c0.2,0.2,0.9,1,1.5,1.7s1.5,1.7,2,2.3s1,1.3,1,1.6c0.1,0.3,0.3,0.8,0.5,1.1s0.4,0.9,0.5,1.5c0.1,0.5,0.2,1,0.3,1
			c0.2,0,0.5,0.9,0.7,1.9c0.1,0.4,0.3,1,0.5,1.3s0.5,0.9,0.5,1.3c0.1,0.4,0.2,0.8,0.3,0.8c0.2,0,0.6,0.9,0.7,1.8
			c0.1,0.4,0.2,0.8,0.4,0.8c0.1,0.1,0.4,0.5,0.5,1s0.4,1,0.6,1.2s0.4,0.6,0.4,0.9c0,0.3,0.2,0.8,0.5,1.2c0.3,0.3,0.5,0.8,0.6,1.1
			s0.3,0.7,0.5,1s0.4,0.6,0.4,0.8s0.2,0.6,0.5,0.9c0.3,0.3,0.5,0.8,0.6,1.1s0.3,0.6,0.4,0.6c0.1,0.1,0.4,0.5,0.5,1s0.4,1,0.6,1.1
			s0.4,0.4,0.4,0.6s0.2,0.4,0.4,0.6c0.2,0.2,0.5,0.7,0.6,1.1c0.1,0.4,0.3,0.8,0.4,0.8s0.5,0.6,1,1.2c0.4,0.7,0.9,1.4,1.1,1.7
			c0.7,0.9,1.3,1.8,1.5,2.3c0.1,0.3,0.4,0.7,0.7,0.9c0.2,0.2,0.6,0.7,0.8,0.9c1,1.4,1.8,2.3,2.1,2.7c0.2,0.2,0.4,0.5,0.4,0.6
			s0.2,0.4,0.5,0.6s0.5,0.4,0.5,0.5s0.2,0.4,0.5,0.7c0.3,0.3,1,1.1,1.6,1.7s1.5,1.7,2.1,2.3c0.6,0.6,1,1.2,1,1.4s0.1,0.3,0.3,0.3
			c0.3,0,1.7,1.4,1.7,1.8c0,0.1,0.1,0.2,0.2,0.2c0.3,0,1.4,1,1.7,1.6c0.1,0.2,0.3,0.4,0.4,0.4c0.2,0,0.9,0.6,3.7,3.2
			c0.6,0.5,1.1,1,1.2,1s0.3,0.2,0.4,0.4c0.1,0.2,0.4,0.4,0.5,0.4s0.4,0.2,0.6,0.5s0.4,0.5,0.6,0.5c0.1,0,0.6,0.3,0.9,0.6
			s1,0.9,1.3,1.1c0.4,0.3,1.1,0.9,1.6,1.4s1.1,1,1.4,1.1c1,0.6,2.1,1.4,2.1,1.6c0,0.1,0.3,0.3,0.6,0.4s0.6,0.3,0.7,0.5
			c0.1,0.2,0.2,0.3,0.4,0.3c0.1,0,0.6,0.3,0.9,0.6c0.4,0.3,0.8,0.6,0.9,0.6c0.1,0,0.4,0.2,0.6,0.4c0.2,0.2,0.5,0.4,0.6,0.4
			s0.5,0.3,0.9,0.6c0.4,0.3,0.8,0.6,1,0.6s0.5,0.2,0.7,0.4c0.2,0.2,0.5,0.4,0.6,0.4s0.5,0.2,0.8,0.5s0.8,0.6,1.2,0.7
			s0.8,0.4,0.9,0.5c0.1,0.2,0.4,0.3,0.5,0.3s0.5,0.2,0.9,0.5c0.3,0.3,0.9,0.6,1.2,0.6c0.3,0.1,0.8,0.3,1,0.5s0.7,0.5,1.1,0.6
			c0.4,0.1,0.8,0.4,0.8,0.5c0.1,0.1,0.5,0.4,1,0.5s1,0.4,1.2,0.5c0.2,0.2,0.5,0.4,0.9,0.4c0.3,0.1,0.8,0.3,1,0.5s0.8,0.4,1.3,0.6
			c0.5,0.1,1,0.3,1.2,0.5s0.7,0.4,1.1,0.4c0.4,0.1,0.9,0.3,1,0.5s0.8,0.4,1.4,0.6c0.7,0.1,1.3,0.4,1.5,0.5c0.2,0.2,0.7,0.3,1.1,0.4
			c0.4,0.1,0.9,0.3,1.1,0.5c0.2,0.2,0.9,0.4,1.7,0.6c0.7,0.1,1.5,0.3,1.7,0.5s0.8,0.4,1.3,0.4c0.5,0.1,1.2,0.3,1.4,0.5
			c0.3,0.2,1,0.4,2,0.6c0.8,0.1,1.7,0.3,2.1,0.5c0.3,0.2,1.2,0.4,1.9,0.5c0.8,0.1,1.5,0.3,1.7,0.5s1.1,0.4,2.5,0.5
			c1.2,0.1,2.4,0.3,2.8,0.5c0.4,0.2,1.7,0.4,2.9,0.5c1.3,0.1,2.5,0.3,2.9,0.5c1.6,0.8,24.7,0.8,26.3,0c0.4-0.2,1.6-0.4,3.1-0.5
			c1.4-0.1,2.7-0.3,3-0.5s1.6-0.4,2.9-0.5c1.6-0.1,2.5-0.3,2.7-0.5s1-0.4,1.8-0.5s1.7-0.3,2-0.5s1.3-0.4,2.2-0.5s1.7-0.3,1.8-0.4
			c0.2-0.3,0.9-0.6,1.8-0.7c0.5-0.1,1.1-0.3,1.3-0.4c0.2-0.2,1-0.4,1.7-0.5s1.4-0.4,1.6-0.6c0.2-0.2,0.7-0.4,1.2-0.5s1-0.3,1.2-0.4
			c0.2-0.2,0.7-0.4,1.3-0.5c0.5-0.1,1.1-0.3,1.3-0.5s0.7-0.4,1.1-0.5c0.4-0.1,1-0.4,1.2-0.6c0.3-0.2,0.8-0.4,1.3-0.5
			c0.4-0.1,0.9-0.3,0.9-0.4c0.1-0.2,0.5-0.4,0.9-0.5c0.5-0.1,0.9-0.4,1-0.5s0.5-0.4,1-0.5s0.9-0.3,1-0.5c0.2-0.3,1.1-0.8,2.5-1.4
			c0.4-0.2,0.9-0.5,1.1-0.7c0.2-0.2,0.6-0.4,0.9-0.5c0.3-0.1,0.6-0.3,0.8-0.5s0.6-0.4,0.9-0.5c0.3-0.1,0.8-0.4,1.1-0.6
			c0.3-0.3,0.7-0.6,0.8-0.8c0.2-0.2,0.6-0.4,1-0.6s0.7-0.4,0.7-0.5s0.2-0.3,0.5-0.4s0.7-0.4,1-0.6c1-0.9,1.8-1.5,2-1.5
			c0.1,0,0.3-0.2,0.4-0.4c0.1-0.2,0.4-0.4,0.7-0.5c0.3-0.1,0.5-0.3,0.5-0.4c0-0.2,0.2-0.4,0.4-0.4c0.2-0.1,0.5-0.3,0.8-0.5
			s0.6-0.6,0.8-0.7c1.4-1.2,3.8-3.3,4-3.6c0.1-0.2,0.4-0.4,0.5-0.4s0.3-0.2,0.4-0.4c0.1-0.2,0.3-0.5,0.5-0.5
			c0.2-0.1,0.4-0.2,0.4-0.3c0-0.1,0.5-0.7,1.1-1.3c1.3-1.3,1.3-1.3,3.1-3.4c0.8-0.9,1.6-1.8,1.7-1.9c0.2-0.1,0.3-0.3,0.3-0.4
			c0-0.2,0.2-0.4,0.4-0.5c0.2-0.1,0.4-0.4,0.5-0.6s0.3-0.4,0.5-0.5s0.4-0.3,0.5-0.6c0.1-0.3,0.3-0.7,0.6-1c0.3-0.3,0.5-0.6,0.5-0.7
			s0.2-0.3,0.4-0.6c0.2-0.2,0.5-0.6,0.7-0.8c0.6-1,1.1-1.8,1.4-2.1c0.2-0.2,0.5-0.6,0.7-0.9s0.5-1,0.8-1.4c0.2-0.4,0.6-0.8,0.8-0.9
			c0.2-0.1,0.3-0.3,0.3-0.4c0-0.4,1.4-2.5,1.6-2.5c0.1,0,0.2-0.3,0.3-0.7c0.1-0.4,0.3-0.8,0.4-0.9c0.2-0.1,0.5-0.6,0.7-1.1
			c0.4-0.8,0.6-1.2,1.3-2.5c0.2-0.3,0.4-0.8,0.6-1.2s0.4-0.8,0.6-0.9c0.1-0.1,0.4-0.6,0.5-1c0.1-0.5,0.3-0.9,0.5-1.1
			c0.2-0.1,0.3-0.5,0.4-0.9s0.3-0.8,0.5-1s0.5-0.8,0.6-1.4s0.4-1,0.5-1.1c0.2-0.1,0.3-0.4,0.2-0.9c0-0.5-0.1-0.7-0.1-0.5
			s-0.3,0.4-0.5,0.5s-0.7,0.4-1.1,0.7c-1.3,1-1.8,1.4-2.2,1.5c-0.2,0.1-0.5,0.2-0.5,0.3c0,0.2-1.9,1.5-2.5,1.7
			c-0.2,0.1-0.5,0.2-0.5,0.3c0,0.2-1.9,1.5-2.6,1.7c-0.2,0.1-0.4,0.2-0.4,0.3s-0.4,0.4-0.9,0.6c-0.5,0.2-0.9,0.5-0.9,0.6
			s-0.3,0.3-0.7,0.4s-0.8,0.4-1,0.6c-0.2,0.2-0.6,0.4-0.9,0.5s-0.6,0.2-0.7,0.4s-0.5,0.4-1,0.5s-1,0.4-1.1,0.6
			c-0.1,0.2-0.5,0.4-0.8,0.5s-0.7,0.3-0.9,0.5c-0.2,0.2-0.7,0.4-1.1,0.5s-0.8,0.3-1,0.5c-0.1,0.2-0.5,0.4-0.9,0.5s-0.8,0.3-1,0.4
			c-0.2,0.2-0.7,0.4-1.2,0.5s-1.1,0.4-1.3,0.6c-0.3,0.2-0.8,0.4-1.3,0.5s-0.8,0.2-0.8,0.3c0,0.2-1,0.5-2.2,0.7
			c-0.5,0.1-1.1,0.3-1.3,0.5c-0.3,0.2-1,0.4-1.7,0.5s-1.4,0.3-1.7,0.4c-1.3,0.8-4,0.4-3.2-0.5c0.2-0.2,0.5-0.4,0.6-0.4
			c0.2,0,0.3-0.1,0.4-0.3c0.1-0.4,2.1-1.7,2.6-1.7c0.2,0,0.4-0.2,0.6-0.4c0.2-0.2,0.6-0.5,1-0.7s0.7-0.4,0.7-0.5s0.2-0.2,0.4-0.3
			c0.2-0.1,0.7-0.4,1.1-0.7c1.2-1,1.8-1.4,2-1.4c0.1,0,0.5-0.2,0.8-0.6c1.2-1.1,1.7-1.5,2.2-1.6c0.3-0.1,0.5-0.3,0.6-0.5
			s0.2-0.4,0.3-0.4c0.1,0,0.4-0.2,0.6-0.5s0.5-0.5,0.6-0.5s0.4-0.2,0.7-0.6c0.3-0.3,1.3-1.2,2.2-2c2.5-2.3,4.2-4,7.1-7.3
			c0.3-0.3,0.9-1,1.4-1.5s1-1.2,1.1-1.4c0.8-1.3,1.4-2.1,1.6-2.1c0.1,0,0.2-0.2,0.3-0.4c0.1-0.2,0.4-0.7,0.6-1s0.5-0.7,0.5-0.8
			s0.2-0.4,0.5-0.7s0.5-0.6,0.5-0.8s0.2-0.6,0.5-0.9c0.3-0.3,0.5-0.7,0.5-0.9s0.2-0.4,0.4-0.5c0.2-0.1,0.4-0.5,0.5-0.9
			s0.3-0.8,0.5-1.1s0.5-0.8,0.6-1.2s0.4-0.8,0.5-0.9c0.1-0.1,0.4-0.6,0.5-1.2c0.1-0.5,0.4-1.1,0.5-1.3s0.4-0.6,0.5-1.1
			c0.1-0.4,0.4-0.9,0.5-1.1c0.2-0.2,0.4-0.9,0.5-1.5s0.3-1.3,0.5-1.5s0.4-0.8,0.4-1.3c0.1-0.6,0.3-1.2,0.5-1.5
			c0.2-0.4,0.5-1.2,0.6-2.4c0.1-1,0.3-2.1,0.5-2.4c0.2-0.3,0.4-1.5,0.5-2.6c0.1-1.4,0.3-2.3,0.6-2.6c0.4-0.6,0.7-17.4,0.3-19.8
			l-0.1-1.1l-0.2,0.8c-0.1,0.5-0.4,1-0.6,1.2s-0.4,0.6-0.5,0.9c-0.1,0.3-0.3,0.7-0.5,0.8s-0.4,0.5-0.5,0.9s-0.3,0.8-0.5,1.1
			s-0.4,0.7-0.5,0.9c-0.1,0.3-0.4,0.7-0.6,1c-0.3,0.3-0.5,0.7-0.5,0.9s-0.2,0.6-0.5,1s-0.5,0.8-0.5,0.9c0,0.1-0.2,0.4-0.4,0.5
			c-0.2,0.1-0.4,0.5-0.5,0.9c-0.1,0.3-0.3,0.8-0.5,1s-0.4,0.5-0.4,0.6s-0.3,0.6-0.6,1c-0.3,0.4-0.6,0.9-0.6,1s-0.2,0.4-0.4,0.6
			c-0.2,0.2-0.4,0.5-0.4,0.6s-0.3,0.6-0.6,0.9c-0.3,0.4-0.6,0.9-0.7,1.1c-0.1,0.2-0.2,0.4-0.3,0.4c-0.1,0-0.3,0.3-0.5,0.6
			c-0.2,0.4-0.5,0.8-0.7,1s-0.4,0.5-0.4,0.6s-0.2,0.4-0.4,0.5c-0.2,0.1-0.4,0.4-0.4,0.5s-0.2,0.5-0.5,0.7c-0.3,0.3-0.6,0.8-0.8,1.1
			c-0.2,0.3-0.4,0.6-0.5,0.6s-0.3,0.2-0.4,0.5s-0.4,0.5-0.5,0.5s-0.4,0.2-0.4,0.4c-0.2,0.5-1.3,1.8-1.7,1.8c-0.1,0-0.2,0.1-0.2,0.3
			s-0.3,0.6-0.8,1c-0.4,0.4-1.1,1-1.5,1.4c-1.3,1.3-2.8,1.3-1.8,0c0.2-0.3,0.4-0.7,0.4-0.9s0.2-0.6,0.5-1s0.5-0.8,0.5-0.9
			c0-0.1,0.2-0.4,0.4-0.5c0.2-0.1,0.5-0.7,0.6-1.1c0.1-0.5,0.4-0.9,0.5-1s0.3-0.4,0.4-0.7s0.3-0.8,0.5-1s0.5-0.7,0.6-1.1
			c0.1-0.4,0.3-0.9,0.5-1.1c0.2-0.2,0.4-0.7,0.5-1.2s0.4-0.9,0.5-0.9s0.3-0.5,0.4-1s0.3-1.1,0.5-1.4c0.2-0.3,0.4-0.8,0.5-1.2
			s0.3-0.9,0.5-1.1c0.2-0.2,0.4-0.9,0.6-1.6c0.1-0.7,0.4-1.5,0.5-1.7c0.2-0.2,0.4-1,0.5-1.6s0.4-1.3,0.5-1.5
			c0.2-0.2,0.4-1.1,0.5-2.3c0.1-1.1,0.3-2.2,0.5-2.5s0.4-1.7,0.5-3.2s0.3-3.2,0.5-3.8c0.4-1.5,0.4-5.1,0-6.7
			c-0.2-0.6-0.4-2.5-0.5-4.1c-0.1-1.7-0.4-3.1-0.5-3.5c-0.2-0.3-0.4-1.4-0.5-2.3c-0.1-1.3-0.3-1.9-0.6-2.2c-0.2-0.2-0.4-0.8-0.5-1.3
			s-0.3-1.1-0.4-1.3c-0.2-0.2-0.4-0.8-0.5-1.3s-0.3-1.1-0.5-1.3s-0.4-0.7-0.6-1c-0.1-0.4-0.4-0.9-0.6-1.2s-0.4-0.8-0.5-1.1
			c-0.1-0.4-0.2-0.7-0.3-0.7c-0.1,0-0.4-0.4-0.6-0.9s-0.5-0.9-0.6-0.9s-0.3-0.3-0.4-0.7s-0.4-0.9-0.7-1.2c-1-1.1-1.1-1.3-1.4-2
			c-0.2-0.4-0.4-0.7-0.6-0.8s-0.4-0.3-0.5-0.6c-0.1-0.4-0.2-0.3-0.2,0.6c0,0.6,0.1,1.3,0.3,1.7c0.2,0.4,0.4,1.6,0.5,2.9
			c0.1,1.4,0.3,2.4,0.5,2.7s0.4,1.5,0.6,3.5c0.1,1.7,0.4,3.5,0.5,4c0.3,1.4,0.3,11.9,0,13.1c-0.1,0.5-0.4,2.2-0.5,3.8
			c-0.2,1.8-0.4,3-0.6,3.3s-0.4,1.3-0.5,2.6c-0.1,1.2-0.3,2.4-0.5,2.7s-0.4,1.1-0.5,1.7c-0.1,0.7-0.4,1.3-0.5,1.5
			c-0.2,0.2-0.4,0.8-0.4,1.4c-0.1,0.6-0.3,1.4-0.5,1.7c-0.2,0.4-0.4,1-0.5,1.4s-0.3,0.9-0.5,1.2s-0.5,0.9-0.6,1.4s-0.3,1.1-0.5,1.3
			s-0.4,0.7-0.5,1.2s-0.4,0.9-0.5,0.9c-0.2,0.1-0.3,0.5-0.4,0.9s-0.3,1-0.5,1.3s-0.4,0.7-0.5,1s-0.3,0.7-0.5,0.8s-0.4,0.5-0.5,0.9
			s-0.3,0.8-0.5,1s-0.4,0.6-0.5,0.9c-0.1,0.3-0.4,0.7-0.6,1s-0.5,0.6-0.5,0.7c0,0.3-0.9,1.8-1.6,2.6c-0.2,0.3-0.4,0.6-0.4,0.7
			c0,0.2-0.5,1-1.4,2c-0.3,0.3-0.6,0.7-0.6,0.8s-0.2,0.5-0.5,0.8s-0.5,0.6-0.5,0.7c0,0.1-0.2,0.4-0.5,0.7s-0.7,0.8-1,1.1
			c-0.2,0.3-0.6,0.8-0.9,1.1s-0.8,1-1.2,1.5c-0.4,0.5-1.1,1.4-1.6,1.8c-0.5,0.5-0.9,1-0.9,1.1s-0.2,0.3-0.5,0.4
			c-0.3,0.1-0.5,0.3-0.5,0.5c0,0.1-0.2,0.5-0.4,0.7s-0.6,0.5-0.7,0.7c-0.3,0.3-0.5,0.5-1.5,1.5c-0.4,0.4-0.9,0.9-1,1s-0.6,0.6-1,1
			s-0.9,0.9-1,1s-0.6,0.6-1,1c-0.5,0.4-1.2,1.2-1.7,1.7s-1,0.9-1.2,0.9c-0.1,0-0.3,0.2-0.5,0.5c-0.1,0.3-0.3,0.5-0.4,0.5
			c-0.1,0-0.4,0.2-0.7,0.5s-0.7,0.7-0.9,0.8c-0.2,0.2-0.8,0.6-1.3,1s-1.2,1-1.5,1.2s-0.9,0.7-1.2,1.1l-0.7,0.6l1.1,0.1
			c2.4,0.3,11.8,0,12.3-0.4c0.3-0.2,1.2-0.4,2.1-0.6c0.8-0.1,1.7-0.3,2-0.5c0.2-0.2,1.1-0.4,1.8-0.5c0.9-0.1,1.5-0.3,1.8-0.6
			c0.2-0.2,0.8-0.5,1.3-0.5c0.5-0.1,0.9-0.3,0.9-0.4c0.1-0.1,0.5-0.3,0.9-0.4c0.5-0.1,1-0.3,1.2-0.5s0.7-0.5,1-0.6s0.8-0.4,1.1-0.6
			c0.3-0.2,0.7-0.4,1.1-0.5c0.3-0.1,0.7-0.3,0.8-0.5c0.1-0.2,0.4-0.4,0.7-0.5c0.3-0.1,0.5-0.2,0.5-0.3s0.4-0.4,0.9-0.6
			c0.5-0.2,0.9-0.5,1-0.7s0.3-0.3,0.5-0.3s0.5-0.1,0.7-0.3c0.3-0.3,0.8-0.4,1-0.1c0.1,0.1-0.1,0.3-0.3,0.5c-0.2,0.2-0.4,0.6-0.5,0.8
			s-0.2,0.5-0.3,0.5s-0.5,0.4-1,0.8c-0.4,0.5-0.9,0.9-1,1.1s-0.7,0.7-1.2,1.2s-1.1,1-1.2,1s-0.3,0.1-0.4,0.3
			c-0.3,0.4-3.3,2.9-3.5,2.9c-0.1,0-0.3,0.2-0.4,0.4s-0.3,0.5-0.5,0.5c-0.2,0.1-0.5,0.3-0.6,0.5s-0.4,0.4-0.5,0.4s-0.5,0.2-0.8,0.5
			c-0.7,0.7-1.4,1.2-2,1.5c-0.3,0.1-0.7,0.4-1,0.7s-0.6,0.6-0.8,0.7c-0.2,0.2-0.6,0.4-0.9,0.5s-0.8,0.4-1,0.6
			c-0.9,0.8-1.7,1.3-2.2,1.5c-0.3,0.1-0.6,0.3-0.7,0.5c-0.1,0.2-0.4,0.4-0.6,0.5c-0.2,0.1-0.6,0.3-0.8,0.5s-0.6,0.4-0.8,0.4
			s-0.6,0.2-0.8,0.3c-0.6,0.6-2.4,1.6-3,1.7c-0.3,0.1-0.6,0.2-0.6,0.3s-0.3,0.3-0.8,0.5c-0.4,0.2-1,0.5-1.2,0.7
			c-0.3,0.2-0.7,0.4-0.9,0.4s-0.8,0.2-1.2,0.5s-0.8,0.5-0.9,0.5s-0.6,0.2-1.1,0.5s-1.2,0.5-1.7,0.6c-0.4,0.1-0.9,0.3-1.1,0.5
			c-0.2,0.2-0.7,0.4-1.1,0.5c-0.4,0.1-0.9,0.3-1.1,0.4c-0.2,0.2-0.9,0.4-1.5,0.5c-0.7,0.1-1.5,0.4-1.8,0.6s-1,0.5-1.5,0.5
			c-0.5,0.1-1.2,0.3-1.5,0.4c-0.3,0.2-1.2,0.4-2.2,0.5c-1.1,0.1-1.9,0.3-2.1,0.5c-0.2,0.2-1,0.4-2.2,0.5c-1,0.1-2.2,0.3-2.7,0.5
			c-0.6,0.2-1.9,0.4-4.7,0.4c-2.2,0.1-4,0.2-4.1,0.2c-0.1,0.1,0.9,1.3,1.3,1.4c0.2,0.1,0.4,0.2,0.4,0.4c0,0.1,0.3,0.5,0.7,0.9
			c1.6,1.3,1.9,1.6,2.4,2.1c0.2,0.2,0.5,0.4,0.6,0.4s0.4,0.2,0.6,0.4c0.2,0.2,0.7,0.6,1.1,0.8c0.4,0.2,0.8,0.5,0.8,0.6
			s0.2,0.2,0.4,0.3c0.2,0.1,0.7,0.3,1,0.6c0.3,0.3,0.7,0.5,0.9,0.5s0.6,0.2,1,0.5s0.8,0.5,0.9,0.5c0.1,0,0.4,0.2,0.6,0.4
			c0.2,0.2,0.9,0.5,1.5,0.6s1.2,0.4,1.4,0.5c0.1,0.2,0.6,0.3,1.1,0.4s1.1,0.3,1.4,0.5c0.3,0.3,1.1,0.4,2.3,0.6
			c1,0.1,2.1,0.3,2.4,0.5c0.6,0.3,1.3,0.4,6.7,0.7c1.8,0.1,3.5,0.3,3.9,0.3l0.7,0.1l-0.8,0.4c-0.4,0.2-0.8,0.5-0.8,0.5
			c0,0.4-1.3,0.7-3.8,0.9c-1.7,0.1-2.8,0.3-3.1,0.5c-1.4,0.9-20.6,0.9-22,0c-0.3-0.2-1.3-0.4-3-0.5s-2.7-0.3-3-0.5s-1.1-0.4-1.8-0.4
			c-0.8-0.1-1.5-0.3-1.8-0.5s-1-0.4-1.9-0.6c-0.8-0.1-1.6-0.3-1.8-0.5s-0.7-0.4-1.2-0.4c-0.5-0.1-1.1-0.3-1.3-0.5s-0.9-0.5-1.5-0.5
			c-0.6-0.1-1.2-0.3-1.4-0.5s-0.7-0.4-1-0.5c-0.4-0.1-0.9-0.3-1.1-0.5c-0.2-0.2-0.8-0.5-1.3-0.6s-1-0.3-1.2-0.5s-0.7-0.4-1-0.5
			c-0.4-0.1-0.9-0.4-1-0.6c-0.2-0.2-0.6-0.4-0.8-0.4s-0.7-0.2-0.9-0.4c-0.2-0.2-0.6-0.5-0.9-0.5c-0.3-0.1-0.6-0.3-0.7-0.5
			c-0.1-0.2-0.6-0.5-1-0.6c-0.5-0.1-0.9-0.4-0.9-0.5c-0.1-0.2-0.3-0.3-0.5-0.3s-0.7-0.3-1.1-0.6c-0.4-0.3-0.8-0.6-1-0.6
			s-0.4-0.1-0.6-0.3c-0.1-0.2-0.5-0.5-0.9-0.6s-0.7-0.5-0.9-0.7c-0.1-0.2-0.4-0.4-0.6-0.4c-0.2,0-0.4-0.2-0.6-0.4
			c-0.2-0.2-0.4-0.4-0.6-0.4c-0.1,0-0.5-0.3-0.9-0.6c-0.4-0.3-0.7-0.6-0.8-0.6s-0.4-0.2-0.7-0.5s-0.6-0.5-0.7-0.5s-0.2-0.2-0.3-0.4
			c-0.1-0.2-0.2-0.4-0.4-0.4c-0.3,0-2.5-1.7-4.4-3.5c-0.3-0.2-0.7-0.5-0.9-0.7c-0.2-0.1-0.4-0.3-0.4-0.5s-0.1-0.3-0.2-0.3
			c-0.3,0-0.3,0-5-4.7c-5-5-4.7-4.7-4.7-5c0-0.1-0.1-0.2-0.3-0.2s-0.4-0.2-0.5-0.4s-0.7-0.9-1.3-1.5l-1.1-1.1v2.5
			c0,1.8,0.1,2.6,0.3,3.1c0.2,0.3,0.4,1.3,0.5,2.2c0.1,1,0.3,1.7,0.6,1.9c0.2,0.2,0.4,0.7,0.5,1.1c0.1,0.4,0.3,0.9,0.4,1
			c0.2,0.2,0.4,0.6,0.5,1.1c0.1,0.4,0.4,1,0.6,1.2c0.2,0.2,0.4,0.6,0.5,0.9c0.1,0.2,0.2,0.5,0.4,0.5c0.1,0.1,0.4,0.4,0.5,0.8
			s0.4,0.9,0.6,1.2c0.8,0.9,1.6,2,1.6,2.3c0,0.2,0.2,0.4,0.4,0.5s0.5,0.3,0.5,0.5s0.3,0.5,0.5,0.6s0.4,0.4,0.4,0.5s0.2,0.5,0.6,0.8
			c0.3,0.3,0.8,0.8,1.1,1.2c0.3,0.4,0.7,0.9,1,1.2c0.3,0.3,0.6,0.6,0.6,0.8s0.2,0.4,0.5,0.5c0.3,0.2,0.5,0.5,0.5,0.6
			s0.2,0.3,0.4,0.4s0.5,0.3,0.5,0.5c0.1,0.2,0.3,0.5,0.5,0.5c0.2,0.1,0.4,0.2,0.4,0.3c0,0.1,0.3,0.5,0.6,0.8c0.6,0.6,0.6,0.6,0.3,1
			c-0.4,0.5-0.8,0.5-1.1,0c-0.1-0.2-0.7-0.5-1.2-0.6s-1-0.3-1.1-0.5s-0.5-0.3-0.9-0.4s-0.8-0.3-0.9-0.5c-0.1-0.2-0.5-0.5-0.9-0.6
			s-0.9-0.4-1.2-0.6s-0.6-0.4-0.8-0.4c-0.1,0-0.4-0.2-0.5-0.4c-0.1-0.2-0.5-0.4-0.8-0.5s-0.7-0.3-0.8-0.5s-0.3-0.4-0.5-0.4
			s-0.5-0.2-0.8-0.5s-0.8-0.6-1.1-0.8c-1.2-0.7-1.8-1.1-1.9-1.4c-0.1-0.2-0.3-0.4-0.6-0.4c-0.5-0.1-1.2-0.6-2.1-1.6
			c-0.3-0.3-0.6-0.6-0.7-0.6c-0.1,0-0.4-0.2-0.6-0.4c-0.2-0.2-0.6-0.6-0.7-0.7c-0.1-0.1-0.4-0.4-0.5-0.5s-0.6-0.6-1.1-1
			c-0.4-0.4-0.8-0.8-0.8-0.9s-0.2-0.3-0.4-0.3c-0.2-0.1-0.5-0.3-0.5-0.5c-0.1-0.2-0.3-0.4-0.5-0.5s-0.4-0.3-0.5-0.5
			s-0.2-0.4-0.4-0.4c-0.1,0-0.4-0.2-0.5-0.4s-0.4-0.6-0.7-0.9c-1.4-1.5-3-3.5-3.3-4.3c-0.1-0.2-0.4-0.7-0.7-0.9
			c-0.8-0.9-1.3-1.6-1.4-2.2c-0.1-0.3-0.2-0.5-0.3-0.5s-0.4-0.4-0.6-0.9c-0.2-0.5-0.5-1-0.7-1.1s-0.3-0.6-0.4-1s-0.3-0.8-0.5-1
			c-0.2-0.1-0.4-0.5-0.5-0.8s-0.3-0.7-0.4-0.9c-0.1-0.2-0.4-0.7-0.5-1.3c-0.1-0.5-0.4-1.2-0.6-1.4c-0.2-0.3-0.4-0.8-0.5-1.2
			s-0.3-0.9-0.4-1.1c-0.2-0.2-0.4-1-0.5-1.8s-0.3-1.5-0.5-1.7c-0.2-0.1-0.4-0.8-0.5-1.6s-0.3-1.7-0.5-2c-0.2-0.4-0.4-1.5-0.5-3.2
			c-0.1-1.6-0.3-2.9-0.5-3.4c-0.7-1.7-0.7-18.1,0-19.5c0.2-0.5,0.4-1.6,0.5-3.3c0.1-1.8,0.3-2.7,0.5-2.9s0.4-0.9,0.4-1.5
			c0.1-1.2,0.5-2.1,0.7-2.1c0.1,0,0.2-0.5,0.3-1.1s0.3-1.5,0.5-1.9s0.5-1.1,0.6-1.6s0.3-0.9,0.5-1s0.3-0.4,0.4-0.8
			c0.1-0.4,0.3-1,0.5-1.2c0.2-0.3,0.5-0.8,0.6-1.3c0.1-0.4,0.4-0.8,0.5-0.9c0.2-0.1,0.4-0.5,0.5-0.9s0.3-0.8,0.5-0.9
			c0.2-0.1,0.3-0.2,0.3-0.4s0.2-0.5,0.5-0.7c0.2-0.2,0.6-0.8,0.8-1.2s0.4-0.7,0.5-0.7s0.3-0.2,0.3-0.4c0.1-0.2,0.4-0.7,0.6-0.9
			s0.7-0.7,0.9-0.9s0.4-0.5,0.4-0.6c0-0.4,4.7-5.1,6.4-6.5c0.7-0.6,1.5-1.2,1.7-1.4s0.5-0.4,0.6-0.4s0.4-0.2,0.6-0.5
			c0.2-0.3,0.7-0.6,1-0.6c0.3-0.1,0.6-0.2,0.6-0.4s0.3-0.4,0.6-0.5s0.6-0.3,0.6-0.4c0-0.1,0.4-0.3,0.9-0.6c0.5-0.2,0.9-0.5,1-0.7
			s0.3-0.3,0.6-0.4c0.3-0.1,0.7-0.3,1-0.5c0.2-0.2,0.6-0.4,0.9-0.4c0.2,0,0.7-0.2,1-0.5s0.8-0.6,1.1-0.6c0.3-0.1,0.7-0.3,0.9-0.5
			s0.6-0.4,1-0.4c0.3,0,0.8-0.2,1.1-0.5s0.9-0.5,1.2-0.6s0.7-0.3,0.9-0.4c0.1-0.2,0.7-0.4,1.4-0.5c0.6-0.1,1.3-0.4,1.6-0.6
			s0.8-0.4,1.2-0.5s0.9-0.3,1.1-0.4c0.2-0.2,0.9-0.4,1.7-0.5s1.6-0.4,1.9-0.6c0.9-0.6,3.7-0.6,4.5,0c0.3,0.3,1,0.5,1.5,0.6
			s1.1,0.3,1.2,0.5c0.2,0.2,0.7,0.4,1.1,0.4c0.4,0.1,0.9,0.3,1.2,0.5c0.2,0.2,0.9,0.5,1.4,0.6s1.2,0.3,1.4,0.5s0.7,0.4,1.2,0.5
			s1,0.3,1.2,0.5s0.8,0.4,1.3,0.5s1.2,0.3,1.5,0.5c0.4,0.2,1,0.4,1.4,0.5s0.9,0.3,1.2,0.5s1,0.5,1.6,0.6s1.3,0.4,1.5,0.5
			c0.2,0.2,0.5,0.3,0.6,0.3c0.6,0,1.8,0.4,2.1,0.7c0.2,0.2,0.8,0.4,1.5,0.5s1.4,0.3,1.6,0.5c0.2,0.2,0.8,0.4,1.3,0.4
			c0.5,0.1,1.2,0.3,1.4,0.5c0.3,0.2,1.1,0.5,1.8,0.6s1.5,0.3,1.7,0.5s0.8,0.4,1.3,0.4c0.6,0.1,1.2,0.3,1.5,0.5s1.2,0.5,2.1,0.6
			c0.9,0.1,1.8,0.3,2,0.5s0.9,0.3,1.5,0.4c0.6,0.1,1.3,0.3,1.6,0.5c0.4,0.3,1.1,0.4,2.4,0.6c1,0.1,2,0.3,2.2,0.5s1.2,0.4,2.1,0.5
			c1,0.1,1.8,0.3,2,0.5c0.3,0.2,1.1,0.4,2.9,0.5c1.4,0.1,2.8,0.3,3.2,0.5s2,0.4,3.9,0.5c1.7,0.1,3.6,0.3,4.2,0.5
			c1.5,0.4,6.7,0.4,8.1,0c0.5-0.2,2-0.4,3.3-0.5c1.4-0.1,2.5-0.3,2.8-0.5s1-0.4,1.8-0.5s1.5-0.3,1.7-0.6c0.2-0.2,0.7-0.4,1.1-0.5
			s0.7-0.2,0.7-0.3s0.4-0.4,0.8-0.6c1.3-0.6,3.8-2.7,4.4-3.8c0.1-0.2,0.4-0.6,0.6-1s0.6-0.9,0.9-1.2c0.2-0.3,0.4-0.7,0.4-1
			s0.2-0.8,0.4-1.1c0.2-0.3,0.5-1.2,0.6-1.9s0.3-1.5,0.5-1.7c0.4-0.6,0.4-2.1,0-2.6c-0.2-0.2-0.4-1.2-0.5-2.1
			c-0.1-0.9-0.3-1.8-0.5-2.1c-0.1-0.2-0.4-1-0.5-1.8s-0.4-1.5-0.5-1.6c-0.2-0.1-0.4-0.6-0.5-1.1s-0.4-1.1-0.6-1.4
			c-0.2-0.3-0.4-0.9-0.5-1.3c-0.1-0.4-0.3-0.9-0.5-1s-0.4-0.5-0.5-0.8s-0.3-0.8-0.5-1c-0.2-0.3-0.4-0.7-0.5-1.1
			c-0.1-0.3-0.3-0.7-0.5-0.8s-0.4-0.4-0.5-0.6c-0.1-0.2-0.3-0.6-0.5-0.8s-0.4-0.7-0.5-1s-0.2-0.6-0.4-0.6c-0.2,0-0.4-0.3-0.5-0.6
			s-0.3-0.6-0.4-0.6s-0.3-0.3-0.5-0.6c-0.3-0.6-0.7-1.1-1.6-2c-0.2-0.2-0.5-0.6-0.6-0.9c-0.1-0.2-0.3-0.4-0.4-0.4s-0.4-0.2-0.6-0.6
			c-0.5-0.7-7.9-8.1-8.4-8.4c-0.2-0.1-0.4-0.4-0.4-0.5c0-0.2-0.2-0.3-0.5-0.4c-0.2-0.1-0.8-0.5-1.3-1s-0.9-0.9-1-0.9
			s-0.5-0.3-0.9-0.6c-0.4-0.3-0.8-0.6-1-0.7s-0.4-0.2-0.4-0.4c0-0.2-0.2-0.3-0.5-0.4s-0.6-0.3-0.7-0.5c-0.1-0.2-0.3-0.4-0.5-0.4
			s-0.4-0.2-0.6-0.4c-0.2-0.2-0.6-0.6-0.9-0.7c-0.5-0.3-0.8-0.4-1.8-1.4c-0.2-0.2-0.8-0.6-1.2-0.7c-0.4-0.2-0.8-0.4-0.8-0.5
			s-0.1-0.2-0.3-0.2s-0.5-0.2-0.9-0.5c-0.3-0.3-0.8-0.6-1.1-0.7s-0.9-0.5-1.4-0.9s-1.3-0.9-1.8-1.1s-0.9-0.5-0.9-0.6
			s-0.2-0.2-0.5-0.3c-0.3-0.1-0.7-0.3-1-0.6c-0.3-0.3-0.7-0.5-0.9-0.5s-0.6-0.2-1-0.5s-0.8-0.5-0.9-0.5c-0.1,0-0.4-0.2-0.6-0.4
			c-0.2-0.2-0.7-0.5-1.2-0.6s-0.9-0.3-1.1-0.5c-0.1-0.2-0.5-0.3-0.8-0.4s-0.7-0.3-0.8-0.5s-0.5-0.4-0.9-0.5
			c-0.9-0.2-1.7-0.6-1.7-0.7s-0.3-0.2-0.7-0.3c-0.4-0.1-0.9-0.3-1.1-0.5c-0.2-0.2-0.8-0.5-1.3-0.6s-1.1-0.3-1.3-0.5
			s-0.7-0.4-1.1-0.4c-0.4-0.1-0.9-0.3-1.1-0.5c-0.2-0.2-0.9-0.5-1.5-0.6c-0.7-0.1-1.3-0.4-1.5-0.5c-0.2-0.2-0.8-0.4-1.3-0.4
			c-0.5-0.1-1.1-0.3-1.3-0.5s-0.8-0.4-1.5-0.5c-0.6-0.1-1.5-0.3-2-0.5c-0.4-0.2-1.4-0.5-2.1-0.6c-0.7-0.1-1.4-0.4-1.6-0.5
			c-0.2-0.2-1-0.4-2.4-0.5c-1.1-0.1-2.3-0.3-2.7-0.5s-1.8-0.4-3.1-0.5c-1.5-0.1-2.7-0.3-3.1-0.6c-0.5-0.3-1.6-0.3-7.3-0.4l-6.7-0.1
			l-1.6-1.5c-2.2-2-2.4-2.2-3.7-3c-0.6-0.4-1.3-0.9-1.6-1.1s-0.6-0.4-0.7-0.4c-0.1,0-0.5-0.2-0.7-0.4c-0.3-0.2-0.8-0.5-1.2-0.6
			s-0.8-0.4-0.9-0.5c-0.1-0.2-0.6-0.4-1.2-0.5c-0.6-0.1-1.2-0.3-1.5-0.5s-1-0.4-1.6-0.5c-1.1-0.1-1.8-0.4-2-0.8
			C160.2,84,150.4,83.9,149.1,84.1"/>
	</g>
</g>
</svg>
