<?xml version="1.0" encoding="utf-8"?>
<!-- Generator: Adobe Illustrator 22.0.1, SVG Export Plug-In . SVG Version: 6.00 Build 0)  -->
<svg version="1.1" id="Layer_1" xmlns="http://www.w3.org/2000/svg" xmlns:xlink="http://www.w3.org/1999/xlink" x="0px" y="0px"
	 viewBox="0 0 530 599.7" style="enable-background:new 0 0 530 599.7;" xml:space="preserve">
<title>icon-square-small</title>
<path style="fill:#FFFFFF;" d="M265,0l265,149.9v299.9L265,599.7L0,449.8V149.9L265,0z"/>
<path style="fill:#8ED6FB;" d="M482.7,439.4L273.8,557.7v-92L404,394L482.7,439.4z M497,426.5V179.3l-76.4,44.1v159L497,426.5z
	 M46.5,439.4l208.9,118.2v-92L125.2,394L46.5,439.4z M32.2,426.5V179.3l76.4,44.1v159C108.6,382.4,32.2,426.5,32.2,426.5z
	 M41.1,163.3L255.4,42.1v89l-137.3,75.5l-1.1,0.6L41.1,163.3L41.1,163.3z M488,163.3L273.8,42.1v89L411,206.7l1.1,0.6L488,163.3
	L488,163.3z"/>
<path style="fill:#1C78C0;" d="M255.4,444.7L127,374V234.1l128.4,74.1V444.7z M273.8,444.7l128.4-70.6v-140l-128.4,74.1V444.7z
	 M135.6,217.9l129-70.9l128.9,70.9l-128.9,74.4L135.6,217.9z"/>
</svg>
